<?xml version="1.0" encoding="UTF-8" standalone="no"?><!DOCTYPE svg PUBLIC "-//W3C//DTD SVG 1.1//EN" "http://www.w3.org/Graphics/SVG/1.1/DTD/svg11.dtd"><svg width="75px" height="30px" version="1.1" xmlns="http://www.w3.org/2000/svg" xmlns:xlink="http://www.w3.org/1999/xlink" xml:space="preserve" xmlns:serif="http://www.serif.com/" style="fill-rule:evenodd;clip-rule:evenodd;stroke-linejoin:round;stroke-miterlimit:2;"><path id="Deskera-Logo" d="M60.028,19.957c0,-1.902 0.893,-3.679 4.558,-3.679l0,2.179l-0.1,0c-1.518,0 -2.295,0.71 -2.295,2.278l0,4.887l-2.163,0l0,-5.665Zm14.266,5.665l-2.163,0l0,-1.305c-0.578,1.057 -1.783,1.585 -3.055,1.585c-2.906,0 -4.607,-2.261 -4.607,-4.82c0,-2.856 2.064,-4.804 4.607,-4.804c1.652,0 2.658,0.875 3.055,1.601l0,-1.32l2.163,0l0,9.063Zm-7.661,-4.491c0,1.123 0.809,2.757 2.757,2.757c1.205,0 1.998,-0.627 2.411,-1.453c0.214,-0.396 0.313,-0.825 0.346,-1.271c0.017,-0.429 -0.066,-0.875 -0.247,-1.271c-0.38,-0.858 -1.222,-1.601 -2.526,-1.601c-1.751,0 -2.741,1.42 -2.741,2.823l0,0.016Zm-9.753,1.844c-0.422,0.659 -1.103,1.078 -2.088,1.078c-1.239,0.017 -2.527,-0.792 -2.626,-2.245l7.299,0c0.181,-1.584 -0.232,-3.004 -1.338,-4.143c-0.842,-0.875 -2.031,-1.387 -3.385,-1.387c-2.741,0 -4.756,2.262 -4.756,4.837c0,2.526 1.999,4.787 4.789,4.787c0.941,0 1.833,-0.264 2.593,-0.792c0.722,-0.487 1.338,-1.2 1.766,-2.135l-2.254,0Zm-2.122,-4.865c1.585,-0.016 2.494,1.189 2.577,2.047l-5.136,0c0.083,-0.891 0.958,-2.047 2.559,-2.047Zm-29.718,0.505c0.834,0 1.559,0.453 1.831,1.432l-3.753,0c0.272,-0.925 1.106,-1.432 1.922,-1.432Zm-13.51,4.423l0,-6.961l1.704,0c2.266,0 3.752,1.377 3.752,3.48c0,2.103 -1.486,3.481 -3.752,3.481l-1.704,0Zm18.084,-0.146c-0.724,1.945 -2.416,3.01 -4.592,3.01c-2.629,0 -4.804,-1.94 -4.804,-4.822c0,-2.864 2.175,-4.822 4.822,-4.822c2.574,0 4.641,1.849 4.695,4.822l0,0.744l-6.671,0c0.236,1.087 0.979,1.758 1.958,1.758c0.567,0 1.212,-0.117 1.694,-0.69l2.898,0Zm7.707,-0.082c0,-3.207 -4.565,-2.405 -4.565,-3.828c0,-0.409 0.409,-0.606 0.77,-0.606c0.474,0 0.834,0.18 0.85,0.687l2.667,0c-0.18,-1.93 -1.669,-2.863 -3.485,-2.863c-1.75,0 -3.517,1.097 -3.517,2.994c0,1.276 1.08,1.98 2.16,2.372c0.392,0.148 0.785,0.278 1.177,0.409c0.491,0.197 1.227,0.393 1.227,1.047c0,0.475 -0.54,0.704 -0.949,0.704c-0.54,0 -0.949,-0.278 -1.03,-0.834l-2.7,0c0.213,1.995 1.8,3.01 3.698,3.01c1.848,0 3.697,-1.047 3.697,-3.092Zm-28.782,-9.325l0,12.145l4.804,0c4.006,0 6.653,-2.465 6.653,-6.073c0,-3.607 -2.647,-6.072 -6.653,-6.072l-4.804,0Zm38.949,12.145l-4.28,-4.767l3.988,-4.333l-3.499,0l-2.882,3.1l-0.007,-7.052l-2.9,0l0,13.052l2.9,0l0.01,-3.281l2.955,3.281l3.715,0Zm-15.326,-18.295c1.055,-1.052 2.51,-1.703 4.117,-1.703c3.218,0 5.827,2.608 5.827,5.826c0,0.012 -0.001,0.024 -0.001,0.036c11.11,1.661 8.753,17.834 -1.616,17.834l-31.729,0l0.013,-0.009c-0.127,0.006 -0.256,0.009 -0.385,0.009c-4.633,0 -8.388,-3.755 -8.388,-8.388c0,-3.765 2.481,-6.952 5.898,-8.012c0.545,-7.231 6.584,-12.928 13.954,-12.928c5.318,0 9.943,2.967 12.31,7.335Z" style="fill:#232323;"/></svg>